<svg xmlns="http://www.w3.org/2000/svg" xmlns:xlink="http://www.w3.org/1999/xlink" width="500" zoomAndPan="magnify" viewBox="0 0 375 374.999991" height="500" preserveAspectRatio="xMidYMid meet" version="1.0"><defs><clipPath id="1985441029"><path d="M 18.75 18.75 L 356.25 18.75 L 356.25 356.25 L 18.75 356.25 Z M 18.75 18.75 " clip-rule="nonzero"/></clipPath><clipPath id="9a441eceac"><path d="M 36 18.75 L 339 18.75 C 343.574219 18.75 347.960938 20.566406 351.199219 23.800781 C 354.433594 27.039062 356.25 31.425781 356.25 36 L 356.25 339 C 356.25 343.574219 354.433594 347.960938 351.199219 351.199219 C 347.960938 354.433594 343.574219 356.25 339 356.25 L 36 356.25 C 31.425781 356.25 27.039062 354.433594 23.800781 351.199219 C 20.566406 347.960938 18.75 343.574219 18.75 339 L 18.75 36 C 18.75 31.425781 20.566406 27.039062 23.800781 23.800781 C 27.039062 20.566406 31.425781 18.75 36 18.75 Z M 36 18.75 " clip-rule="nonzero"/></clipPath><clipPath id="6a6317e4bf"><path d="M 37.5 119.042969 L 58.992188 119.042969 L 58.992188 255.957031 L 37.5 255.957031 Z M 37.5 119.042969 " clip-rule="nonzero"/></clipPath><clipPath id="5612f8fe0a"><path d="M 83.253906 119.042969 L 104.746094 119.042969 L 104.746094 255.957031 L 83.253906 255.957031 Z M 83.253906 119.042969 " clip-rule="nonzero"/></clipPath><clipPath id="d7ab708d49"><path d="M 220.511719 119.042969 L 242.003906 119.042969 L 242.003906 255.957031 L 220.511719 255.957031 Z M 220.511719 119.042969 " clip-rule="nonzero"/></clipPath><clipPath id="de15293481"><path d="M 131 147 L 197 147 L 197 256 L 131 256 Z M 131 147 " clip-rule="nonzero"/></clipPath><clipPath id="d4fe9411c1"><path d="M 150.539062 255.375 L 131.085938 246.242188 L 177.492188 147.410156 L 196.945312 156.546875 Z M 150.539062 255.375 " clip-rule="nonzero"/></clipPath><clipPath id="5b2b294e92"><path d="M 129.003906 119.042969 L 150.496094 119.042969 L 150.496094 255.957031 L 129.003906 255.957031 Z M 129.003906 119.042969 " clip-rule="nonzero"/></clipPath><clipPath id="2a2f946745"><path d="M 291.140625 119.042969 L 312.628906 119.042969 L 312.628906 255.957031 L 291.140625 255.957031 Z M 291.140625 119.042969 " clip-rule="nonzero"/></clipPath><clipPath id="b7e7427a8e"><path d="M 41 158 L 101 158 L 101 198 L 41 198 Z M 41 158 " clip-rule="nonzero"/></clipPath><clipPath id="d996d2f420"><path d="M 41.707031 178.007812 L 49.566406 158.007812 L 100.238281 177.925781 L 92.375 197.925781 Z M 41.707031 178.007812 " clip-rule="nonzero"/></clipPath><clipPath id="52dd470883"><path d="M 174 147 L 241 147 L 241 256 L 174 256 Z M 174 147 " clip-rule="nonzero"/></clipPath><clipPath id="773f15d497"><path d="M 240.25 246.886719 L 220.765625 255.953125 L 174.488281 156.472656 L 193.972656 147.40625 Z M 240.25 246.886719 " clip-rule="nonzero"/></clipPath><clipPath id="1a84e53c21"><path d="M 177.796875 147.410156 L 193.496094 147.410156 L 193.496094 169.738281 L 177.796875 169.738281 Z M 177.796875 147.410156 " clip-rule="nonzero"/></clipPath><clipPath id="a37e6443e2"><path d="M 266.261719 119.039062 L 337.492188 119.039062 L 337.492188 140.527344 L 266.261719 140.527344 Z M 266.261719 119.039062 " clip-rule="nonzero"/></clipPath></defs><g clip-path="url(#1985441029)"><g clip-path="url(#9a441eceac)"><path fill="#001c00" d="M 18.75 18.75 L 356.25 18.75 L 356.25 356.25 L 18.75 356.25 Z M 18.75 18.75 " fill-opacity="1" fill-rule="nonzero"/></gu></gu><g clip-path="url(#6a6317e4bf)"><path fill="#ffffff" d="M 37.5 119.042969 L 58.992188 119.042969 L 58.992188 255.960938 L 37.5 255.960938 Z M 37.5 119.042969 " fill-opacity="1" fill-rule="nonzero"/></gu><g clip-path="url(#5612f8fe0a)"><path fill="#ffffff" d="M 83.253906 119.042969 L 104.746094 119.042969 L 104.746094 255.960938 L 83.253906 255.960938 Z M 83.253906 119.042969 " fill-opacity="1" fill-rule="nonzero"/></gu><g clip-path="url(#d7ab708d49)"><path fill="#ffffff" d="M 242.003906 255.957031 L 220.511719 255.957031 L 220.511719 119.039062 L 242.003906 119.039062 Z M 242.003906 255.957031 " fill-opacity="1" fill-rule="nonzero"/></gu><g clip-path="url(#de15293481)"><g clip-path="url(#d4fe9411c1)"><path fill="#ffffff" d="M 150.539062 255.375 L 131.085938 246.242188 L 177.507812 147.382812 L 196.957031 156.519531 Z M 150.539062 255.375 " fill-opacity="1" fill-rule="nonzero"/></gu></gu><g clip-path="url(#5b2b294e92)"><path fill="#ffffff" d="M 150.496094 255.957031 L 129.003906 255.957031 L 129.003906 119.039062 L 150.496094 119.039062 Z M 150.496094 255.957031 " fill-opacity="1" fill-rule="nonzero"/></gu><g clip-path="url(#2a2f946745)"><path fill="#ffffff" d="M 291.140625 119.042969 L 312.628906 119.042969 L 312.628906 255.960938 L 291.140625 255.960938 Z M 291.140625 119.042969 " fill-opacity="1" fill-rule="nonzero"/></gu><g clip-path="url(#b7e7427a8e)"><g clip-path="url(#d996d2f420)"><path fill="#ffffff" d="M 41.707031 178.007812 L 49.566406 158.007812 L 100.273438 177.9375 L 92.410156 197.941406 Z M 41.707031 178.007812 " fill-opacity="1" fill-rule="nonzero"/></gu></gu><g clip-path="url(#52dd470883)"><g clip-path="url(#773f15d497)"><path fill="#ffffff" d="M 240.25 246.886719 L 220.765625 255.953125 L 174.488281 156.472656 L 193.972656 147.40625 Z M 240.25 246.886719 " fill-opacity="1" fill-rule="nonzero"/></gu></gu><g clip-path="url(#1a84e53c21)"><path fill="#ffffff" d="M 193.496094 169.738281 L 177.796875 169.738281 L 177.796875 147.414062 L 193.496094 147.414062 Z M 193.496094 169.738281 " fill-opacity="1" fill-rule="nonzero"/></gu><g clip-path="url(#a37e6443e2)"><path fill="#ffffff" d="M 337.492188 119.039062 L 337.492188 140.527344 L 266.222656 140.527344 L 266.222656 119.039062 Z M 337.492188 119.039062 " fill-opacity="1" fill-rule="nonzero"/></gu></svg>